<?xml version="1.0" standalone="no"?>
<!DOCTYPE svg PUBLIC "-//W3C//DTD SVG 20010904//EN"
 "http://www.w3.org/TR/2001/REC-SVG-20010904/DTD/svg10.dtd">
<svg version="1.0" xmlns="http://www.w3.org/2000/svg"
 width="1024.000000pt" height="1024.000000pt" viewBox="0 0 1024.000000 1024.000000"
 preserveAspectRatio="xMidYMid meet">
<metadata>
Created by potrace 1.14, written by Peter Selinger 2001-2017
</metadata>
<g transform="translate(0.000000,1024.000000) scale(0.100000,-0.100000)"
fill="#000000" stroke="none">
<path d="M7598 9595 c-2 -2 -21 -5 -43 -8 -152 -21 -345 -158 -427 -303 -18
-33 -31 -60 -30 -62 2 -2 -3 -13 -11 -25 -22 -34 -39 -114 -43 -201 -2 -43 -6
-81 -8 -83 -3 -3 -1 -15 4 -27 4 -13 5 -29 0 -36 -4 -7 -4 -26 0 -41 5 -16 5
-31 0 -34 -4 -3 -4 -21 0 -40 4 -19 4 -35 0 -35 -4 0 -4 -18 0 -40 4 -22 4
-43 0 -45 -4 -3 -4 -21 0 -40 4 -19 5 -35 1 -35 -3 0 -6 -34 -6 -75 0 -41 4
-75 8 -75 5 0 5 -5 2 -11 -9 -14 -9 -134 -1 -148 4 -6 4 -11 -1 -11 -9 0 -9
-180 0 -203 3 -7 2 -20 -3 -27 -4 -7 -4 -26 0 -41 5 -16 6 -29 2 -29 -8 0 -7
-134 1 -147 3 -5 2 -15 -3 -22 -4 -8 -4 -27 0 -42 5 -16 6 -29 2 -29 -8 0 -7
-134 1 -147 3 -5 2 -15 -3 -22 -4 -8 -4 -27 0 -42 5 -16 6 -29 2 -29 -4 0 -6
-33 -4 -72 2 -70 3 -83 1 -110 0 -7 0 -26 0 -43 1 -16 1 -38 1 -47 0 -10 0
-26 0 -35 0 -10 0 -29 0 -43 0 -14 1 -34 4 -45 2 -11 0 -29 -4 -40 -4 -11 -4
-29 0 -41 5 -11 5 -27 0 -34 -4 -7 -4 -26 0 -41 5 -16 5 -31 0 -34 -4 -3 -4
-21 0 -40 4 -19 4 -35 0 -35 -4 0 -4 -18 0 -40 4 -22 4 -43 0 -45 -4 -3 -4
-21 0 -40 4 -19 5 -35 1 -35 -3 0 -6 -34 -6 -75 0 -41 4 -75 8 -75 5 0 5 -5 1
-11 -7 -13 -10 -262 -2 -275 3 -5 2 -18 -2 -29 -4 -11 -4 -32 1 -47 4 -16 5
-28 1 -28 -4 0 -7 -16 -7 -35 0 -19 3 -35 6 -35 4 0 3 -16 -1 -35 -4 -19 -4
-35 0 -35 4 0 4 -15 0 -34 -4 -19 -4 -40 0 -46 4 -7 4 -25 0 -40 -4 -15 -4
-33 1 -41 4 -8 4 -21 -1 -29 -4 -7 -4 -23 0 -36 5 -12 6 -25 3 -28 -8 -8 -9
-76 -1 -76 4 0 3 -13 -2 -28 -4 -16 -4 -35 1 -43 4 -8 4 -21 -1 -29 -4 -7 -4
-23 0 -36 5 -12 6 -25 3 -28 -8 -8 -9 -76 -1 -76 4 0 3 -13 -2 -29 -4 -15 -4
-34 0 -41 5 -7 5 -23 0 -35 -5 -12 -5 -28 0 -35 4 -7 5 -23 0 -34 -4 -11 -4
-33 0 -48 5 -14 6 -29 3 -32 -7 -7 -8 -200 -1 -212 3 -5 2 -18 -2 -29 -4 -11
-4 -32 1 -47 4 -16 5 -28 1 -28 -4 0 -7 -16 -7 -35 0 -19 3 -35 6 -35 4 0 3
-16 -1 -35 -4 -19 -4 -35 0 -35 4 0 4 -15 0 -34 -4 -19 -4 -40 0 -46 4 -7 4
-25 0 -40 -4 -15 -4 -33 1 -41 4 -8 4 -21 -1 -29 -4 -7 -4 -23 0 -36 5 -12 6
-25 3 -28 -8 -8 -9 -76 -1 -76 4 0 3 -13 -2 -28 -4 -16 -4 -35 1 -43 4 -8 4
-21 -1 -29 -4 -7 -4 -23 0 -36 5 -12 6 -25 3 -28 -8 -8 -9 -76 -1 -76 4 0 3
-13 -2 -29 -4 -15 -4 -34 0 -41 5 -7 5 -23 0 -35 -5 -12 -5 -28 0 -35 5 -7 4
-23 0 -36 -5 -12 -7 -24 -4 -26 6 -7 11 -98 4 -98 -3 0 -5 -39 -6 -88 -1 -83
-17 -257 -24 -257 -2 0 -9 -34 -13 -65 -5 -35 -55 -199 -73 -237 -8 -17 -14
-33 -14 -36 0 -2 -8 -22 -17 -43 -9 -22 -17 -41 -18 -44 0 -3 -5 -12 -10 -20
-5 -8 -20 -37 -33 -64 -25 -54 -153 -249 -204 -311 -117 -143 -330 -325 -493
-424 -140 -84 -394 -193 -505 -215 -14 -3 -40 -9 -57 -15 -18 -5 -33 -8 -33
-6 0 3 -10 1 -23 -4 -13 -5 -46 -12 -73 -15 -27 -4 -65 -9 -84 -11 -30 -5
-217 -17 -245 -16 -37 0 -215 12 -235 15 -14 2 -47 7 -75 11 -101 14 -368 86
-390 106 -5 5 -15 9 -22 9 -20 0 -198 87 -282 138 -126 75 -260 181 -374 293
-59 59 -107 112 -107 118 0 6 -4 11 -8 11 -5 0 -35 37 -68 82 -63 88 -73 104
-100 155 -10 18 -21 33 -26 33 -4 0 -8 6 -8 14 0 7 -11 33 -25 58 -39 71 -88
193 -121 303 -9 29 -35 134 -39 160 -3 17 -8 37 -10 45 -8 33 -17 120 -20 210
-2 52 -5 97 -5 100 -4 14 -1 102 4 107 2 3 1 15 -4 27 -4 13 -5 29 0 36 4 7 4
26 0 41 -5 16 -5 31 0 34 4 3 4 21 0 40 -4 19 -4 35 0 35 4 0 4 18 0 40 -4 22
-4 43 0 45 4 3 4 21 0 40 -4 19 -5 35 -1 35 3 0 6 34 6 75 0 41 -3 75 -6 75
-4 0 -3 16 1 34 4 19 6 36 4 38 -1 2 -5 28 -8 58 -16 156 -74 277 -186 390
-59 60 -93 85 -160 117 -116 56 -158 66 -280 68 -104 2 -209 -17 -264 -48 -12
-6 -24 -11 -27 -12 -22 -1 -147 -96 -189 -143 -47 -51 -113 -152 -110 -167 0
-3 -6 -18 -15 -33 -42 -75 -46 -130 -42 -692 2 -294 7 -544 10 -555 2 -11 8
-49 12 -85 4 -36 15 -108 25 -160 11 -52 22 -108 24 -125 3 -16 11 -46 16 -65
6 -19 13 -46 16 -60 7 -31 41 -141 62 -200 9 -25 17 -47 18 -50 1 -8 15 -41
51 -125 19 -44 35 -84 36 -90 2 -5 7 -17 12 -25 5 -8 10 -20 11 -27 1 -7 13
-27 26 -45 12 -18 22 -34 20 -36 -6 -5 92 -176 150 -264 21 -31 38 -61 38 -66
0 -6 4 -12 8 -14 5 -2 23 -24 40 -50 18 -25 38 -52 45 -60 7 -7 24 -29 37 -48
13 -19 27 -37 30 -40 3 -3 34 -39 69 -80 175 -204 415 -415 645 -568 125 -83
122 -81 251 -151 33 -18 66 -38 74 -45 8 -6 16 -10 18 -8 2 2 36 -12 76 -32
88 -42 176 -79 271 -112 84 -30 95 -33 101 -34 3 0 22 -7 42 -15 21 -8 49 -17
63 -19 14 -3 52 -13 85 -22 63 -17 83 -22 125 -30 14 -3 32 -7 40 -9 8 -3 33
-7 55 -10 22 -4 47 -8 56 -11 9 -2 38 -7 65 -9 27 -3 60 -7 74 -10 36 -8 183
-18 267 -19 40 -1 73 -3 73 -6 0 -3 25 -5 55 -5 30 0 55 2 55 5 0 3 39 5 88 6
74 1 221 11 272 19 8 1 38 5 65 9 74 11 97 15 125 21 14 3 39 8 55 11 17 2 46
9 65 14 19 5 46 11 60 14 48 9 136 35 240 71 58 20 110 37 115 39 20 6 51 18
92 37 24 10 45 19 48 19 3 0 62 27 131 60 148 70 343 184 414 240 14 11 29 20
33 20 5 0 14 6 22 13 7 6 25 21 41 32 153 110 404 342 529 489 28 32 56 64 63
72 6 7 12 17 12 23 0 6 4 11 8 11 5 0 26 25 48 56 21 30 44 61 49 67 53 60
285 459 300 517 1 3 8 19 15 35 7 17 14 32 15 35 1 3 9 22 18 44 9 21 17 41
17 43 0 3 7 19 15 36 22 49 117 368 111 374 -3 3 -1 13 3 22 5 9 11 30 14 46
3 17 8 41 11 55 3 14 8 36 10 50 2 14 7 41 10 60 9 53 15 101 23 182 11 98 10
5551 0 5607 -14 77 -88 241 -109 241 -4 0 -8 6 -8 13 0 17 -94 107 -157 151
-29 20 -55 36 -57 36 -2 0 -21 8 -42 17 -22 9 -42 18 -46 19 -5 1 -9 2 -10 4
-2 1 -10 3 -18 5 -8 2 -28 6 -45 10 -30 7 -211 15 -217 10z"/>
</g>
</svg>
